<svg width="54" height="69" viewBox="0 0 54 69" fill="none" xmlns="http://www.w3.org/2000/svg">
<g clip-path="url(#clip0_470_436)">
<path d="M28.7438 50.6001C28.7078 50.6731 28.6539 50.7461 28.6179 50.8191C28.6718 50.7461 28.7078 50.6731 28.7438 50.6001Z" fill="#2D2D2D"/>
<path d="M28.9236 50.2898C28.9415 50.235 28.9415 50.1803 28.9595 50.1255C28.9236 50.1985 28.9056 50.2898 28.8696 50.3628C28.8876 50.3445 28.9056 50.308 28.9236 50.2898Z" fill="#2D2D2D"/>
<path d="M25.4362 62.6112C25.4002 62.4834 25.3822 62.3739 25.3643 62.2461C25.3822 62.3739 25.4002 62.5017 25.4362 62.6112Z" fill="#2D2D2D"/>
<path d="M27.7732 51.604C27.6114 51.75 27.4855 51.8778 27.3777 52.0056C27.5035 51.8595 27.6294 51.7318 27.7732 51.604Z" fill="#2D2D2D"/>
<path d="M29.0494 49.3588C29.0494 49.5231 29.0494 49.7056 29.0134 49.8699C29.0494 49.6873 29.0674 49.5231 29.0494 49.3588Z" fill="#2D2D2D"/>
<path d="M24.1778 7.77623C24.3935 8.50638 24.5912 9.21829 24.789 9.93019C24.9867 10.6421 25.1664 11.3357 25.3642 12.0294C25.526 12.65 25.6878 13.2889 25.7956 13.9461C25.8495 14.2746 25.9035 14.585 25.9394 14.9135C25.9035 14.585 25.8495 14.2564 25.7956 13.9461C25.4181 11.8469 24.771 9.80242 24.1778 7.77623Z" fill="#2D2D2D"/>
<path d="M20.5646 6.22471C20.8881 5.7501 21.2477 5.2755 21.6072 4.8009C21.9128 4.39931 22.2543 3.97947 22.5779 3.57788C22.2364 3.97947 21.9128 4.38106 21.6072 4.78264C21.2477 5.2755 20.9061 5.7501 20.5646 6.22471Z" fill="#2D2D2D"/>
<path d="M27.5034 44.8865C27.5214 44.8135 27.5214 44.7405 27.5573 44.6675C27.5394 44.704 27.5214 44.7588 27.5214 44.7953C27.5034 44.8318 27.5214 44.8683 27.5034 44.8865Z" fill="#2D2D2D"/>
<path d="M19.8276 13.3437C19.8995 13.2159 19.9714 13.1064 20.0433 12.9786C19.9714 13.0882 19.8995 13.1977 19.8276 13.3437Z" fill="#2D2D2D"/>
<path d="M32.0692 38.9723C32.0872 38.9358 32.1052 38.9175 32.1052 38.8993C32.1052 38.9175 32.1052 38.9175 32.0692 38.9723Z" fill="#2D2D2D"/>
<path d="M19.468 13.9827C19.5399 13.8366 19.6118 13.6906 19.7017 13.5446C19.6298 13.6906 19.5579 13.8184 19.468 13.9827Z" fill="#2D2D2D"/>
<path d="M20.1152 12.8508C20.1512 12.7778 20.2051 12.7048 20.2411 12.65C20.2231 12.6865 20.1871 12.7595 20.1152 12.8508Z" fill="#2D2D2D"/>
<path d="M27.6472 44.3207C27.6652 44.2477 27.6832 44.1929 27.7191 44.1199C27.7011 44.1564 27.6832 44.1929 27.6832 44.2294C27.6652 44.2476 27.6652 44.2842 27.6472 44.3207Z" fill="#2D2D2D"/>
<path d="M25.3822 19.7873C24.9688 20.8461 24.8789 22.0691 25.1126 23.2008C25.1305 23.2556 25.1485 23.3286 25.1665 23.3834C25.1485 23.3104 25.1305 23.2556 25.1126 23.1826C24.8609 22.0691 24.9688 20.8461 25.3822 19.7873C25.4002 19.7508 25.4182 19.7326 25.4182 19.6961C25.4002 19.7326 25.4002 19.7508 25.3822 19.7873Z" fill="#2D2D2D"/>
<path d="M28.3303 42.9517C28.3663 42.8969 28.4022 42.8604 28.4382 42.8057C28.4202 42.8239 28.4022 42.8422 28.3842 42.8604C28.3663 42.8787 28.3483 42.9152 28.3303 42.9517Z" fill="#2D2D2D"/>
<path d="M27.7911 43.9373C27.7731 43.9738 27.7731 43.9921 27.7551 44.0286C27.8091 43.9008 27.863 43.8095 27.8989 43.6818C27.8989 43.6818 27.8989 43.7 27.881 43.7C27.881 43.7365 27.8091 43.8826 27.7911 43.9373Z" fill="#2D2D2D"/>
<path d="M30.4695 49.7786C30.4515 49.7969 30.4335 49.8151 30.4155 49.8334C30.6852 49.6143 30.9548 49.3953 31.1525 49.1215C31.1166 49.1762 31.0806 49.231 31.0267 49.2675C30.8649 49.45 30.6672 49.6326 30.4695 49.7786Z" fill="#2D2D2D"/>
<path d="M25.9755 17.4873C25.9755 17.5603 25.9575 17.6333 25.9575 17.7064C25.9575 17.6151 25.9575 17.5603 25.9755 17.4873Z" fill="#2D2D2D"/>
<path d="M28.2404 58.5953C28.1865 58.7231 28.1325 58.8691 28.0786 58.9969C28.1146 58.8509 28.1685 58.7231 28.2404 58.5953Z" fill="#2D2D2D"/>
<path d="M26.0113 15.9358C26.0293 16.3921 26.0113 16.8302 25.9753 17.2683C26.0293 16.8302 26.0293 16.3739 26.0113 15.9358Z" fill="#2D2D2D"/>
<path d="M25.9395 14.9318C25.9754 15.2238 25.9934 15.5341 26.0114 15.8445C25.9934 15.5341 25.9754 15.2421 25.9395 14.9318Z" fill="#2D2D2D"/>
<path d="M30.0201 44.7588C30.11 44.9231 30.1819 45.0691 30.2897 45.2152C30.3257 45.2882 30.3796 45.3612 30.4335 45.4342C30.3796 45.3612 30.3437 45.2882 30.3077 45.2152C30.2718 45.1604 30.2538 45.1239 30.2358 45.0691C29.9482 44.5033 29.9122 43.9374 30.0381 43.3533C29.9841 43.5906 29.9482 43.8096 29.9482 44.0104C29.9122 44.339 29.9482 44.6128 30.0201 44.7588Z" fill="#2D2D2D"/>
<path d="M30.0381 43.2438C30.074 43.0795 30.128 42.9152 30.1819 42.7692C30.2178 42.6961 30.2538 42.6049 30.2898 42.5319C30.2538 42.6049 30.1999 42.6961 30.1819 42.7692C30.11 42.9334 30.074 43.0795 30.0381 43.2438Z" fill="#2D2D2D"/>
<path d="M31.2064 54.1048C31.1705 54.3238 31.0806 54.5794 30.8829 54.8714C30.8649 54.8897 30.8649 54.9079 30.8469 54.9445C30.8649 54.9262 30.8829 54.9079 30.9009 54.8714C31.0806 54.5794 31.1705 54.3238 31.2064 54.1048C31.2064 54.0683 31.2244 54.05 31.2244 54.0135C31.2064 54.05 31.2064 54.0683 31.2064 54.1048Z" fill="#2D2D2D"/>
<path d="M33.813 33.4595C34.0108 33.6056 34.2265 33.7516 34.4242 33.9159C34.622 34.0802 34.8017 34.2444 34.9276 34.4452C35.0714 34.6278 35.1613 34.8286 35.2152 35.0659C35.2691 35.3214 35.2691 35.5952 35.2332 35.8873C35.2152 36.0516 35.1792 36.2159 35.1433 36.3984C35.0354 36.8548 34.8377 37.3111 34.604 37.731C34.3523 38.169 34.0467 38.5706 33.7232 38.954C33.3816 39.319 33.0221 39.6476 32.6446 39.8849C31.9435 40.3413 31.4222 40.8341 31.0268 41.327C31.4222 40.8341 31.9615 40.3413 32.6446 39.8849C33.0221 39.6476 33.3816 39.319 33.7232 38.954C34.0647 38.5889 34.3523 38.169 34.604 37.7492C34.8557 37.3111 35.0354 36.8548 35.1433 36.3984C35.1792 36.2341 35.2152 36.0516 35.2332 35.8873C35.2691 35.6135 35.2511 35.3397 35.2152 35.0659C35.1792 34.8468 35.0714 34.6278 34.9276 34.4452C34.7838 34.2627 34.622 34.0802 34.4242 33.9341C34.2265 33.7333 34.0288 33.5873 33.813 33.4595C33.6153 33.3135 33.4176 33.1492 33.2019 33.0032C33.2198 33.0214 33.2198 33.0214 33.2378 33.0397C33.4176 33.1675 33.6153 33.3135 33.813 33.4595Z" fill="#2D2D2D"/>
<path d="M29.5706 29.9731C29.1572 29.5715 28.7797 29.1517 28.4202 28.7136C28.3842 28.6588 28.3303 28.6041 28.2764 28.5493C28.3303 28.6041 28.3662 28.6588 28.4022 28.7136C28.7797 29.1882 29.1752 29.5898 29.5706 29.9731Z" fill="#2D2D2D"/>
<path d="M31.3862 48.7017C31.3862 48.6834 31.4042 48.6834 31.4042 48.6652C31.4042 48.6834 31.4042 48.6834 31.3862 48.7017Z" fill="#2D2D2D"/>
<path d="M31.1166 53.4842C31.1166 53.5024 31.1166 53.5207 31.1166 53.5207C31.1345 53.5207 31.1345 53.5024 31.1166 53.4842C31.0447 53.2834 30.9188 53.1008 30.793 52.9001C30.7571 52.8635 30.7391 52.827 30.7031 52.7905C30.7211 52.827 30.7571 52.8818 30.793 52.9183C30.9188 53.1191 31.0447 53.3016 31.1166 53.4842Z" fill="#2D2D2D"/>
<path d="M29.5526 50.8009C29.5346 50.8374 29.5346 50.8739 29.5346 50.8921C29.5167 51.0017 29.5346 51.0929 29.5706 51.2025C29.6245 51.3302 29.6964 51.458 29.8043 51.5858C29.8223 51.6223 29.8582 51.6406 29.8762 51.6771C29.8582 51.6406 29.8223 51.6041 29.8043 51.5858C29.7144 51.458 29.6245 51.3302 29.5706 51.2025C29.5346 51.1112 29.5167 51.0017 29.5346 50.9104C29.5346 50.8556 29.5346 50.8374 29.5526 50.8009C29.5886 50.7096 29.6425 50.6183 29.6964 50.5453C29.8043 50.3993 29.9301 50.2898 30.0559 50.162C30.02 50.1985 29.9661 50.235 29.9301 50.2715C29.7504 50.4358 29.6065 50.6001 29.5526 50.8009Z" fill="#2D2D2D"/>
<path d="M24.5554 47.9715C24.5914 47.9168 24.6273 47.8438 24.6813 47.8073C24.6453 47.8438 24.6093 47.8985 24.5554 47.9715Z" fill="#2D2D2D"/>
<path d="M23.2432 41.2358C23.2611 41.181 23.2791 41.108 23.2971 41.0532C23.2971 41.0897 23.2432 41.1627 23.2432 41.2358C23.2432 41.2175 23.2432 41.2175 23.2432 41.2358Z" fill="#2D2D2D"/>
<path d="M22.3803 58.4857C22.3444 58.8873 22.2725 59.3254 22.1287 59.8C22.2545 59.3802 22.3623 58.9238 22.3803 58.4857Z" fill="#2D2D2D"/>
<path d="M23.8184 43.6453C23.9082 43.7913 24.0161 43.9191 24.124 44.0651C24.0341 43.9191 23.9262 43.7913 23.8184 43.6453Z" fill="#2D2D2D"/>
<path d="M20.2771 27.8191C20.4748 28.1112 20.6726 28.385 20.8883 28.6588C20.6905 28.3667 20.4748 28.0929 20.2771 27.8191Z" fill="#2D2D2D"/>
<path d="M21.2658 61.6802C21.3737 61.5159 21.4816 61.3334 21.5714 61.1691C21.5894 61.1326 21.5894 61.1143 21.6074 61.0961C21.4816 61.3151 21.3557 61.5524 21.2119 61.7715C21.2299 61.7167 21.2658 61.6802 21.2658 61.6802Z" fill="#2D2D2D"/>
<path d="M23.998 39.8485C24.1419 39.6659 24.3216 39.4834 24.5194 39.3191C24.3216 39.4651 24.1598 39.6477 23.998 39.8485Z" fill="#2D2D2D"/>
<path d="M21.1039 21.4302V21.4485C21.1039 21.3755 21.1039 21.2842 21.1039 21.2112C21.1039 21.2477 21.1039 21.3025 21.1039 21.339C21.086 21.3755 21.1039 21.412 21.1039 21.4302Z" fill="#2D2D2D"/>
<path d="M21.0321 61.9723C20.8343 62.2278 20.6186 62.5017 20.3669 62.7572C20.5287 62.5929 20.6905 62.4104 20.8343 62.2278C20.8882 62.1548 20.9602 62.0636 21.0321 61.9723Z" fill="#2D2D2D"/>
<path d="M24.6812 47.789C24.7171 47.7525 24.7531 47.716 24.789 47.6794C24.789 47.6794 24.789 47.6794 24.771 47.6977C24.7531 47.7159 24.7171 47.7525 24.6812 47.789Z" fill="#2D2D2D"/>
<path d="M23.6745 59.7088C23.6925 59.6358 23.6925 59.5628 23.7104 59.4897C23.6925 59.581 23.6925 59.6723 23.6745 59.7453C23.6565 59.7453 23.6745 59.727 23.6745 59.7088Z" fill="#2D2D2D"/>
<path d="M23.8721 54.1779C23.98 54.0501 24.0878 53.9223 24.1777 53.7946C24.0699 53.9223 23.962 54.0684 23.8362 54.1961C23.8542 54.1961 23.8542 54.1779 23.8721 54.1779Z" fill="#2D2D2D"/>
<path d="M24.4834 48.0811C24.4295 48.1906 24.3936 48.3001 24.3936 48.4279C24.3936 48.3001 24.4295 48.1723 24.4834 48.0811Z" fill="#2D2D2D"/>
<path d="M23.4768 54.6524C23.4948 54.6159 23.5307 54.5794 23.5487 54.5612C23.5307 54.5794 23.5307 54.5977 23.5128 54.6159C23.4948 54.6159 23.4768 54.6342 23.4768 54.6524Z" fill="#2D2D2D"/>
<path d="M24.9509 41.3635C25.0408 41.1445 25.1487 40.9254 25.2565 40.7246C25.3824 40.5238 25.5082 40.323 25.652 40.1405C25.5082 40.323 25.3644 40.5238 25.2565 40.7246C25.1307 40.9254 25.0228 41.1445 24.9509 41.3635Z" fill="#2D2D2D"/>
<path d="M23.261 55.054C23.3149 54.9263 23.3868 54.7985 23.4587 54.689C23.4407 54.7072 23.4228 54.7255 23.4228 54.7437C23.3509 54.835 23.2969 54.9445 23.261 55.054Z" fill="#2D2D2D"/>
<path d="M25.3823 47.2048C25.4003 47.1866 25.4003 47.1866 25.4183 47.1683C25.4183 47.1683 25.4003 47.1866 25.3823 47.2048Z" fill="#2D2D2D"/>
<path d="M24.7351 42.3493V42.3676C24.7351 42.3311 24.7351 42.2763 24.7351 42.2398C24.7351 42.185 24.7531 42.1485 24.7531 42.0938C24.7531 42.1485 24.7351 42.185 24.7351 42.2215C24.7351 42.2945 24.7351 42.3311 24.7351 42.3493Z" fill="#2D2D2D"/>
<path d="M53.4608 35.6683C52.7238 33.3501 51.2857 31.2509 49.4522 29.7358C47.7445 28.3302 45.6592 27.4723 43.5021 27.162C40.9136 26.7969 38.343 27.4175 36.06 28.677C35.5208 28.9691 34.9815 29.2977 34.4422 29.6628C34.6399 29.3889 34.8197 29.1334 34.9635 28.8778C35.2511 28.385 35.4309 27.9651 35.5567 27.6548C35.8803 26.9064 36.1319 26.1032 36.3476 25.3001C36.5634 24.4786 36.7072 23.6572 36.815 22.8723C36.9229 22.0874 36.9588 21.3389 36.9588 20.7001C36.9409 19.9516 36.8869 19.185 36.7791 18.4183C36.6712 17.6516 36.5094 16.8667 36.2937 16.1183C36.0421 15.3334 35.7724 14.585 35.4488 13.8731C35.1253 13.1612 34.7478 12.4858 34.3164 11.8651C33.7231 10.9889 33.076 10.058 32.4109 9.07228C31.7278 8.08657 31.0267 7.0826 30.2717 6.06037C29.4988 5.03815 28.7078 4.01593 27.845 3.03022C26.9821 2.02625 26.0654 1.05879 25.0947 0.164342C25.0767 0.127834 25.0407 0.10958 25.0048 0.0913261C24.9688 0.0730721 24.9329 0.0548181 24.8969 0.0365642C24.861 0.0183102 24.825 0.0183102 24.7711 5.62351e-05C24.7172 -0.0181977 24.6812 5.62351e-05 24.6453 5.62351e-05C24.6093 5.62351e-05 24.5733 5.62351e-05 24.5374 5.62351e-05C24.5014 5.62351e-05 24.4655 0.0183102 24.4295 0.0183102C24.3936 0.0183102 24.3576 0.0365642 24.3397 0.0548181C24.3037 0.0730721 24.2857 0.0913261 24.2498 0.10958C23.7285 0.529421 23.1892 0.967517 22.6499 1.44212C22.1106 1.91672 21.5893 2.40958 21.05 2.92069C20.5287 3.4318 20.0074 3.96117 19.5041 4.50879C19.4142 4.60006 19.3243 4.69133 19.2524 4.7826C19.7018 5.2572 20.1153 5.76831 20.4748 6.29768C20.4928 6.26117 20.5287 6.22466 20.5467 6.18815C20.8883 5.71355 21.2298 5.23895 21.5893 4.76434C21.8949 4.36275 22.2365 3.94291 22.56 3.55958C22.614 3.48656 22.6679 3.41355 22.7218 3.34053C22.9915 4.07069 23.2251 4.8191 23.4588 5.54926C23.6925 6.27942 23.9082 7.00958 24.1239 7.73974C24.7172 9.78418 25.3823 11.8286 25.7418 13.9278C25.7957 14.2564 25.8496 14.585 25.8856 14.8953V14.9135C25.9215 15.2056 25.9395 15.5159 25.9575 15.8262C25.9575 15.8628 25.9575 15.881 25.9575 15.9175C25.9755 16.3739 25.9575 16.812 25.9215 17.2501C25.9215 17.3231 25.9215 17.3961 25.9036 17.4691C25.9036 17.5421 25.8856 17.6151 25.8856 17.6882C25.8676 17.7794 25.8496 17.8707 25.8496 17.9437C25.8137 18.181 25.7598 18.4183 25.7058 18.6556C25.6879 18.7104 25.6879 18.7651 25.6699 18.8382C25.598 19.1302 25.4901 19.4223 25.3823 19.6961C25.3643 19.7326 25.3643 19.7509 25.3463 19.7874C24.9329 20.8461 24.825 22.0691 25.0767 23.1826C25.0947 23.2556 25.1126 23.3104 25.1306 23.3834C25.598 25.2636 27.0361 27.0707 28.2584 28.5493C28.3124 28.604 28.3483 28.6588 28.4022 28.7136C28.7618 29.1516 29.1572 29.5715 29.5527 29.9731C30.6672 31.0866 31.9255 32.0723 33.1839 33.0032C33.3816 33.1493 33.5973 33.3135 33.7951 33.4413C33.9928 33.5874 34.2085 33.7334 34.4062 33.8977C34.604 34.062 34.7837 34.2262 34.9096 34.4088C35.0534 34.5913 35.1433 34.7921 35.1972 35.0294C35.2331 35.285 35.2511 35.5588 35.2152 35.8509C35.1972 36.0151 35.1612 36.1977 35.1253 36.362C35.0174 36.8183 34.8197 37.2747 34.586 37.7128C34.3343 38.1509 34.0467 38.5524 33.7052 38.9175C33.3636 39.2826 33.0041 39.6112 32.6266 39.8485C31.9255 40.3048 31.4042 40.7977 31.0088 41.2905C31.0088 41.3088 30.9908 41.3088 30.9908 41.327C30.9369 41.4001 30.8829 41.4731 30.829 41.5461C30.7751 41.6374 30.7211 41.7286 30.6672 41.8199C30.5953 41.9294 30.5234 42.0389 30.4695 42.1302C30.3976 42.258 30.3437 42.404 30.2897 42.5318C30.2538 42.6048 30.2178 42.6961 30.1819 42.7691C30.1279 42.9334 30.074 43.0977 30.0381 43.2437C30.0381 43.2802 30.0201 43.3167 30.0021 43.335C29.8763 43.9191 29.9122 44.485 30.1998 45.0509C30.2178 45.1056 30.2538 45.1421 30.2717 45.1969C30.3077 45.2699 30.3616 45.3429 30.3976 45.4159C30.9189 46.2921 31.566 47.1136 31.4941 48.1358C31.4761 48.3001 31.4582 48.4643 31.3863 48.6469C31.3863 48.6651 31.3683 48.6651 31.3683 48.6834C31.3144 48.8477 31.2245 48.9755 31.1346 49.1032C30.9369 49.377 30.6672 49.5961 30.3976 49.8151C30.2717 49.9247 30.1459 50.0342 30.0201 50.1437C29.8943 50.2532 29.7684 50.381 29.6606 50.527C29.6066 50.6001 29.5527 50.6913 29.5168 50.7826C29.4988 50.8191 29.4988 50.8556 29.4988 50.8739C29.4808 50.9651 29.4988 51.0747 29.5347 51.1659C29.5887 51.2937 29.6606 51.4215 29.7684 51.5493C29.7864 51.5858 29.8223 51.6223 29.8403 51.6405C30.1279 52.0056 30.4156 52.389 30.6852 52.7723C30.7032 52.8088 30.7391 52.8453 30.7751 52.8818C30.9009 53.0826 31.0267 53.2651 31.0986 53.4477C31.0986 53.4659 31.0986 53.4842 31.0986 53.5024C31.1526 53.6485 31.1706 53.7945 31.1706 53.9405C31.1706 53.9588 31.1706 53.977 31.1706 53.9953C31.1706 54.0318 31.1706 54.0501 31.1526 54.0866C31.1166 54.3056 31.0267 54.5612 30.829 54.8532C30.811 54.8715 30.7931 54.8897 30.7751 54.9263C30.2897 55.6382 29.8223 56.3318 29.2651 56.9889C28.9235 57.3723 28.618 57.7921 28.3483 58.2302C28.3124 58.3032 28.2584 58.358 28.2225 58.431C28.2045 58.4858 28.1865 58.5405 28.1506 58.577C28.0966 58.7048 28.0427 58.8509 27.9888 58.9786C27.9888 58.9969 27.9708 59.0151 27.9708 59.0334C27.9528 59.1247 27.9349 59.2159 27.9169 59.3072C27.9169 59.3437 27.8989 59.3802 27.8989 59.4167C27.8809 59.6358 27.8809 59.8548 27.9169 60.0739C27.9528 60.4207 28.0427 60.7858 28.1686 61.1691C28.2764 61.5524 28.4202 61.9358 28.5461 62.3191C28.618 62.5382 28.6539 62.8302 28.6539 63.1588C28.6539 63.3231 28.6539 63.5056 28.6359 63.7064C28.618 63.9072 28.6 64.108 28.564 64.3088C28.564 64.3453 28.5461 64.4001 28.5281 64.4366C28.4202 64.9294 28.1865 65.6413 28.1686 65.7326C29.1213 64.7104 30.2538 63.5239 31.4582 62.8485C31.6739 62.7207 31.8716 62.6112 32.0873 62.6659C32.8064 62.8302 33.4176 63.104 34.1725 63.1588C34.6579 63.1953 35.1433 63.177 35.6106 63.1405C35.8443 63.1223 36.078 63.0858 36.3117 63.0493C39.4575 62.5564 42.082 60.8953 43.3403 57.7739C43.3583 57.7374 43.3583 57.7009 43.3583 57.6826C43.3583 57.6461 43.3403 57.6096 43.3223 57.5913C43.3044 57.5548 43.2684 57.5366 43.2504 57.5183C43.2145 57.5001 43.1785 57.4818 43.1426 57.4636C43.0168 57.4453 42.9089 57.427 42.7831 57.4088C42.6572 57.3905 42.5494 57.3723 42.4235 57.354C39.8889 56.9889 37.1026 56.1128 35.2331 54.2326C32.6626 51.6588 31.548 44.1747 35.7724 42.5866C37.0667 42.112 38.7205 42.112 39.853 42.9516C40.0687 43.0977 40.2664 43.2802 40.4642 43.4628C40.6619 43.6636 40.8417 43.8643 41.0214 44.1016C41.2012 44.3389 41.345 44.5763 41.4708 44.8501C41.5966 45.1056 41.7045 45.3977 41.7944 45.6897C41.8663 45.9818 41.9202 46.2921 41.9202 46.6024C41.9202 46.9128 41.9022 47.2413 41.8124 47.5882C41.7944 47.6429 41.7764 47.7159 41.7584 47.7707C41.6865 48.0445 41.5787 48.3366 41.4349 48.6104C41.4349 48.6104 41.4349 48.6286 41.4169 48.6286C41.4169 48.6286 41.4169 48.6469 41.3989 48.6469V48.6651V48.6834C41.3809 48.7199 41.3809 48.7564 41.3809 48.7747C41.3809 48.8112 41.3989 48.8477 41.4169 48.8659C41.4349 48.9024 41.4708 48.9207 41.4888 48.9389C41.5247 48.9572 41.5607 48.9755 41.5966 48.9755H41.6146C41.8663 48.9937 42.118 48.9937 42.3516 48.9937C42.6033 48.9937 42.837 48.9937 43.0887 48.9937C46.2165 48.8842 49.4342 47.9715 51.5913 45.4889C52.7238 44.1929 53.4429 42.6231 53.7484 40.9437C54.1439 39.2643 54.0361 37.4389 53.4608 35.6683Z" fill="#2D2D2D"/>
<path d="M21.032 61.9723C21.068 61.9358 21.1579 61.8262 21.2118 61.7532C21.3556 61.5342 21.4814 61.2969 21.6073 61.0778C21.7691 60.7675 21.9129 60.4572 22.0207 60.1286C22.0387 60.0556 22.0746 60.0008 22.0926 59.9278C22.1106 59.8913 22.1286 59.8365 22.1286 59.8C22.2724 59.3254 22.3443 58.8691 22.3802 58.4858C22.3802 58.4675 22.3802 58.4492 22.3802 58.431C22.3802 58.358 22.3802 58.3032 22.3802 58.2302C22.3802 57.5548 22.1466 56.9524 21.9308 56.3318C21.823 56.0215 21.7511 55.7111 21.6972 55.4008C21.6612 55.1088 21.6612 54.8167 21.7331 54.5429C21.805 54.2691 21.9488 53.9953 22.1825 53.758C22.3802 53.5572 22.56 53.3564 22.7218 53.1373C22.8836 52.9183 23.0454 52.6992 23.1892 52.4619C23.2251 52.4072 23.2611 52.3524 23.297 52.2977C23.4049 52.1334 23.5127 51.9508 23.6206 51.7683C23.7644 51.531 23.9082 51.3119 24.052 51.0929C24.2138 50.8556 24.2857 50.6548 24.3037 50.454C24.3217 50.2715 24.3037 50.1072 24.2318 49.9429C24.1599 49.7786 24.052 49.6326 23.9442 49.4683C23.8363 49.304 23.6925 49.1397 23.5846 48.9389C23.5307 48.8477 23.4408 48.7381 23.3509 48.6469C23.2611 48.5373 23.1712 48.4461 23.0813 48.3365C22.9914 48.227 22.9195 48.1175 22.8836 48.008C22.8476 47.8984 22.8296 47.7889 22.8656 47.6794C22.9195 47.5151 23.0274 47.3873 23.1712 47.2413C23.315 47.1135 23.4768 46.9858 23.6386 46.8397C23.8003 46.7119 23.9621 46.5659 24.1059 46.4199C24.1599 46.3651 24.1958 46.3104 24.2497 46.2373C24.3217 46.1278 24.3756 46.0183 24.4115 45.9088C24.5194 45.5619 24.5374 45.2516 24.4834 44.9596C24.4295 44.6857 24.3217 44.4119 24.1778 44.1746C24.1599 44.1381 24.1239 44.0834 24.088 44.0469C23.9981 43.9008 23.8902 43.7731 23.7824 43.627C23.5846 43.3715 23.4049 43.1159 23.2611 42.8238C23.1352 42.5865 23.0633 42.331 23.0633 42.0572C23.0633 42.0389 23.0633 42.0389 23.0633 42.0207C23.0633 41.8016 23.0993 41.5643 23.1712 41.2905C23.1712 41.254 23.1892 41.2175 23.2071 41.1992C23.2071 41.1445 23.2431 41.0715 23.2611 41.0167C23.4049 40.6334 23.6206 40.2318 23.9442 39.8119C24.1059 39.6111 24.2677 39.4286 24.4655 39.2826C24.6991 39.0635 24.9688 38.8445 25.2924 38.6254C25.5979 38.4246 25.9215 38.1691 26.1912 37.8588C26.4608 37.5667 26.7125 37.2199 26.9102 36.8548C27.1079 36.4897 27.2697 36.1246 27.3416 35.7413C27.4315 35.3762 27.4495 35.0111 27.3776 34.6643C27.3416 34.4818 27.2517 34.3175 27.1259 34.1532C27.0001 34.0072 26.8563 33.8611 26.6945 33.7334C26.5327 33.6056 26.3529 33.4778 26.1732 33.3683C26.0653 33.2953 25.9575 33.2223 25.8496 33.1492C25.7957 33.1127 25.7418 33.058 25.6878 33.0215C25.4721 32.8572 25.2744 32.6929 25.0587 32.5286C24.843 32.3643 24.6452 32.2 24.4295 32.0357C24.2138 31.8715 23.9981 31.7072 23.8003 31.5429C23.7284 31.4881 23.6386 31.4334 23.5667 31.3604C23.4228 31.2508 23.297 31.1413 23.1532 31.05C22.6139 30.6302 22.0746 30.1008 21.5713 29.5167C21.4095 29.3342 21.2657 29.1516 21.1039 28.9508C21.0141 28.8413 20.9242 28.7135 20.8343 28.604C20.6186 28.3302 20.4209 28.0564 20.2231 27.7643C20.2051 27.7461 20.1872 27.7096 20.1692 27.6913C20.1153 27.6183 20.0793 27.5453 20.0254 27.4723C19.558 26.8151 19.0367 26.158 18.785 25.3548C18.5334 24.5334 18.6053 23.6389 18.785 22.7992C18.839 22.5437 18.8929 22.3246 18.9468 22.2334C19.0547 21.9961 19.1266 21.7405 19.1985 21.5032C19.2524 21.2477 19.3063 20.9921 19.3603 20.7365C19.4322 20.2254 19.4501 19.7143 19.4142 19.185C19.3782 18.6556 19.3063 18.1445 19.1985 17.6151C19.0906 17.104 18.9648 16.5929 18.803 16.1C18.7671 15.9357 18.7131 15.7715 18.6592 15.6072C18.6412 15.6619 18.6233 15.6984 18.6053 15.735C18.4075 16.2278 18.2278 16.7389 18.048 17.25C17.8862 17.7611 17.7424 18.2723 17.6346 18.7834C17.5267 19.2945 17.4548 19.8238 17.4189 20.3532C17.3649 21.0104 17.3649 21.7405 17.4189 22.5254C17.4728 23.3104 17.5806 24.1135 17.7244 24.9167C17.8862 25.7199 18.084 26.4865 18.3536 27.1984C18.6053 27.8921 18.9288 28.531 19.3063 29.0604C18.821 28.7683 18.3177 28.4945 17.8143 28.2754C17.293 28.0381 16.7717 27.8373 16.2504 27.6731C15.7291 27.5088 15.1898 27.3627 14.6505 27.2715C11.7564 26.7238 8.59262 27.1254 6.02205 28.6588C5.10528 29.2064 4.2604 29.8635 3.50541 30.6302C2.06733 32.127 1.04269 33.8611 0.485435 35.65C-0.0897977 37.4207 -0.197654 39.2643 0.107939 40.9619C0.413531 42.6596 1.13257 44.2294 2.26506 45.5072C3.93683 47.4238 6.32765 48.4461 8.75441 48.8294C9.41952 48.9389 10.1026 48.9937 10.7857 49.0119C11.0194 49.0302 11.2711 49.0302 11.5227 49.0302C11.7744 49.0302 12.0081 49.0119 12.2597 48.9937C12.2957 48.9937 12.3496 48.9754 12.3676 48.9572C12.4035 48.9389 12.4215 48.9024 12.4395 48.8659C12.4575 48.8294 12.4754 48.7929 12.4754 48.7746C12.4754 48.7381 12.4754 48.7016 12.4575 48.6834V48.6651V48.6469L12.4395 48.6286C12.4395 48.6286 12.4215 48.6104 12.4215 48.5921C12.2418 48.2453 12.1159 47.8984 12.044 47.5699C11.9721 47.223 11.9362 46.8945 11.9362 46.5842C11.9362 46.2556 11.9901 45.9635 12.062 45.6715C12.1339 45.3794 12.2418 45.1056 12.3856 44.8318C12.5114 44.5762 12.6732 44.3207 12.835 44.0834C13.0147 43.8643 13.1945 43.6453 13.3922 43.4445C14.8123 42.0754 17.0953 41.6556 18.7311 42.8421C18.9288 42.9881 19.1086 43.1524 19.2884 43.335C20.3489 44.4667 20.7624 46.1096 20.7624 47.6611C20.7624 49.1945 20.5107 50.8738 19.9715 52.3159C19.8097 52.7358 19.594 53.1556 19.3423 53.5572C18.5334 54.7619 17.329 55.6016 16.0347 56.1492C15.6572 56.3135 15.2617 56.4596 14.8303 56.5873C13.7158 56.9342 12.5833 57.1897 11.4328 57.354C11.307 57.3723 11.1992 57.3905 11.0733 57.4088C10.9475 57.427 10.8396 57.4453 10.7138 57.4635C10.6778 57.4635 10.6419 57.4818 10.6059 57.5183C10.57 57.5365 10.552 57.5731 10.5161 57.5913C10.4981 57.6278 10.4801 57.6643 10.4801 57.6826C10.4801 57.7191 10.4801 57.7556 10.4981 57.7738C10.8217 58.5588 11.1992 59.2524 11.6306 59.8731C12.9788 61.808 14.9202 63.0858 17.1672 62.9945C18.1559 62.9945 19.2524 62.958 20.277 62.7207C20.6006 62.5016 20.8343 62.2461 21.032 61.9723ZM6.07598 38.6619L4.92551 38.4429L4.09862 39.2826L3.95481 38.1143L2.9122 37.5667L3.97279 37.0556L4.15255 35.8873L4.96147 36.7453L6.11193 36.5627L5.55468 37.6032L6.07598 38.6619ZM6.41753 33.2953L6.27372 32.0905L5.21313 31.5429L6.27372 31.0318L6.47145 29.827L7.28038 30.7032L8.46679 30.5207L7.89156 31.5794L8.43084 32.6564L7.2624 32.4373L6.41753 33.2953ZM9.11393 37.3659L8.9881 36.3802L8.10727 35.9238L9.00607 35.4858L9.16786 34.5L9.85095 35.2302L10.8217 35.0659L10.3543 35.9604L10.8037 36.8548L9.83297 36.6723L9.11393 37.3659ZM13.6259 42.1667L12.4754 41.9477L11.6486 42.7873L11.5047 41.6008L10.4621 41.0532L11.5227 40.5421L11.7025 39.3738L12.5114 40.2318L13.6619 40.0492L13.1046 41.0897L13.6259 42.1667ZM13.1406 32.9119L13.6259 33.8977L12.5653 33.6969L11.7924 34.4818L11.6486 33.3865L10.6778 32.8937L11.6665 32.4191L11.8463 31.3238L12.5833 32.127L13.6619 31.9627L13.1406 32.9119Z" fill="#2D2D2D"/>
<path d="M26.245 65.2945C26.227 64.9659 26.1731 64.6739 26.1012 64.4548C25.8855 63.8707 25.5979 63.25 25.4541 62.6112C25.4181 62.4834 25.4001 62.3739 25.3822 62.2461C25.3642 62.027 25.3462 61.7897 25.3822 61.5524C25.3822 61.4977 25.4002 61.4429 25.4181 61.3881C25.4541 61.1873 25.508 60.9683 25.5979 60.7675C26.3169 59.0881 27.9527 58.0294 28.6358 56.3135C28.6718 56.204 28.7077 56.0945 28.7437 55.985C28.7796 55.7477 28.7796 55.5104 28.6898 55.2913C28.2224 54.0683 26.4787 53.1921 27.4135 52.0056C27.5213 51.8778 27.6292 51.75 27.8089 51.604C27.9887 51.458 28.1685 51.3302 28.3302 51.1659L28.3482 51.1477C28.4021 51.0929 28.4741 51.0199 28.528 50.9651C28.5639 50.9286 28.5819 50.8921 28.6179 50.8556C28.6358 50.8373 28.6358 50.8191 28.6538 50.8008C28.7077 50.7278 28.7437 50.6548 28.7796 50.5818C28.8336 50.5088 28.8695 50.4175 28.9055 50.3445C28.9414 50.2715 28.9594 50.1802 28.9954 50.1072C29.0133 50.0524 29.0493 49.9977 29.0493 49.9246C29.0493 49.8881 29.0493 49.8699 29.0493 49.8516C29.0852 49.6873 29.0852 49.5048 29.0852 49.3405C29.0852 49.304 29.0852 49.2675 29.0852 49.231C28.9594 47.8802 27.5393 47.0223 27.4674 45.6897C27.4494 45.4159 27.4854 45.1421 27.5213 44.8866C27.5213 44.85 27.5213 44.8318 27.5213 44.7953C27.5393 44.7405 27.5393 44.704 27.5573 44.6675C27.5752 44.5397 27.6112 44.4302 27.6472 44.3024C27.6651 44.2659 27.6651 44.2294 27.6651 44.2112C27.6831 44.1746 27.7011 44.1381 27.7011 44.1016C27.7191 44.0651 27.7191 44.0286 27.737 44.0104C27.755 43.9739 27.755 43.9556 27.773 43.9191C27.791 43.8826 27.8629 43.7183 27.8808 43.6818C27.8808 43.6818 27.8808 43.6635 27.8988 43.6635C28.0067 43.408 28.1685 43.1707 28.3302 42.9334C28.3482 42.8969 28.3662 42.8786 28.3842 42.8421C28.4021 42.8238 28.4201 42.8056 28.4381 42.7873C28.6358 42.5135 28.8515 42.258 29.0852 42.0207C29.1032 42.0024 29.1212 41.9842 29.1392 41.9659C30.1099 40.9985 31.2244 40.3778 31.9614 39.1548C31.9974 39.0818 32.0333 39.027 32.0693 38.954C32.1052 38.8993 32.1052 38.8992 32.1052 38.8992C32.7883 37.6215 33.1298 36.0516 31.9075 35.0112C29.7683 33.1675 27.3955 31.6159 25.6698 29.3342C24.0699 27.2167 21.9667 24.7159 22.4701 21.8866C22.6318 21.0104 23.0093 20.2072 23.225 19.3493C23.4767 18.3818 23.5486 17.3778 23.5127 16.3921C23.4408 14.6032 23.2071 12.8326 22.7397 11.1167C22.2543 9.38258 21.5173 7.75798 20.5107 6.31592C20.2051 6.75401 19.9175 7.19211 19.6478 7.61195C19.4321 7.95878 18.9108 8.81671 18.8569 8.88973C18.749 9.10877 18.6232 9.32782 18.4974 9.54687C18.4974 9.56512 18.4794 9.56512 18.4794 9.58338C18.3715 9.78417 18.2457 10.0032 18.1378 10.204C18.012 10.4231 17.9041 10.6421 17.7783 10.8794C17.6884 11.1167 17.5626 11.3358 17.4368 11.5731C17.5626 11.9564 17.6884 12.3397 17.8143 12.7231C17.9401 13.1064 18.048 13.4897 18.1738 13.8548C18.2996 14.2381 18.4075 14.6032 18.5153 14.9866C18.5693 15.2056 18.6412 15.4064 18.6951 15.6254C18.8748 15.1691 19.0726 14.7127 19.2883 14.2746C19.2883 14.2929 19.2883 14.2929 19.3063 14.3112C19.3243 14.2929 19.3243 14.2746 19.3422 14.2564C19.3602 14.2199 19.3782 14.1834 19.3962 14.1469C19.4321 14.0921 19.4501 14.0373 19.486 13.9826C19.5579 13.8366 19.6298 13.6905 19.7197 13.5445C19.7377 13.5262 19.7557 13.4897 19.7557 13.4715C19.7737 13.435 19.8096 13.3985 19.8276 13.3619C19.8995 13.2159 19.9714 13.1064 20.0433 12.9969C20.0613 12.9786 20.0792 12.9421 20.0792 12.9239C20.0972 12.9056 20.0972 12.8873 20.1152 12.8691C20.1691 12.7778 20.2231 12.7048 20.241 12.6683C20.259 12.65 20.259 12.6318 20.259 12.6318C20.4747 13.1612 20.6725 13.7088 20.8163 14.2564C21.2117 15.6619 21.4095 17.1223 21.4634 18.5643C21.4994 19.3858 21.4274 20.2072 21.2297 20.9921C21.1758 21.1746 21.1219 21.3572 21.0679 21.5215C20.9061 22.0326 20.6904 22.5437 20.6005 23.0731C20.5286 23.5112 20.5107 23.931 20.5646 24.3508C20.7983 26.158 22.1645 27.8008 23.243 29.2064C24.6811 31.0866 26.6405 32.3643 28.4201 33.8794C29.4987 34.8104 29.1032 36.2342 28.4381 37.3112C27.8269 38.3151 26.9101 38.8262 26.0832 39.6112C25.9215 39.7754 25.7597 39.9397 25.6159 40.1223C25.4721 40.3048 25.3282 40.5056 25.2204 40.7064C25.0946 40.9072 24.9867 41.1262 24.9148 41.3453C24.8249 41.5643 24.771 41.8016 24.735 42.0389C24.735 42.0572 24.735 42.0937 24.735 42.1119C24.735 42.1667 24.7171 42.2032 24.7171 42.258C24.7171 42.2945 24.7171 42.331 24.7171 42.3858C24.7171 42.477 24.7171 42.5683 24.7171 42.6778C24.753 43.408 25.3103 43.9739 25.6878 44.5945C25.8675 44.9048 26.0113 45.2151 26.0473 45.5802C26.1012 46.2191 25.8675 46.7485 25.4181 47.1683C25.4002 47.1866 25.4001 47.1866 25.3822 47.2048C25.2923 47.2778 25.1844 47.3691 25.0766 47.4421C25.0227 47.4786 24.9687 47.5334 24.9148 47.5699C24.8788 47.6064 24.8249 47.6429 24.789 47.6794C24.753 47.7159 24.7171 47.7524 24.6811 47.7889C24.6272 47.8437 24.5912 47.8985 24.5553 47.9532C24.5193 47.9897 24.4834 48.0262 24.4654 48.0627C24.4115 48.1723 24.3755 48.2818 24.3755 48.4096C24.3935 48.8842 24.8788 49.377 25.2563 49.8516C25.4541 50.0889 25.6159 50.3262 25.7057 50.5453C25.9754 51.2207 25.4001 51.8413 25.0766 52.3889C24.789 52.8635 24.5013 53.3381 24.1598 53.7945C24.0699 53.9223 23.9621 54.05 23.8542 54.1778L23.8362 54.1961C23.8362 54.1961 23.8362 54.2143 23.8183 54.2143C23.7643 54.2873 23.6924 54.3421 23.6385 54.4151C23.6025 54.4516 23.5666 54.5064 23.5306 54.5429C23.5127 54.5794 23.4767 54.6159 23.4587 54.6342C23.4587 54.6524 23.4408 54.6524 23.4408 54.6707C23.3689 54.7802 23.297 54.908 23.243 55.0358C22.7936 56.131 23.4587 57.2262 23.6924 58.285C23.7104 58.3215 23.7104 58.3762 23.7284 58.4127C23.7464 58.5223 23.7464 58.65 23.7464 58.7596C23.7464 58.8508 23.7643 58.9421 23.7643 59.0334C23.7643 59.1794 23.7284 59.3254 23.7104 59.4715C23.6924 59.5445 23.6924 59.6175 23.6745 59.6905C23.6745 59.7088 23.6745 59.7088 23.6565 59.727C23.6205 59.8548 23.5666 59.9826 23.5306 60.1104C23.4947 60.2016 23.4767 60.2929 23.4228 60.3842C23.3329 60.6032 23.2251 60.804 23.0992 60.9866C22.4521 61.9723 21.4454 62.4834 20.3489 62.7389C20.0792 63.031 19.7557 63.2866 19.4141 63.5421C19.7377 63.8889 20.0792 64.2175 20.4388 64.5278C20.7803 64.8381 21.1398 65.1119 21.4994 65.3858C21.8409 65.6596 22.1824 65.9151 22.488 66.1524C22.7936 66.3897 23.0812 66.5905 23.3149 66.7913C23.4947 66.9373 23.6924 67.1381 23.8902 67.3572C24.0879 67.5762 24.2856 67.8318 24.4834 68.0691C24.6631 68.2881 24.8249 68.4889 25.0047 68.6715C25.0227 68.6897 25.0586 68.7262 25.0766 68.7445C25.1485 68.8175 25.2204 68.8905 25.3103 68.9635C25.544 68.5437 25.7237 68.1056 25.8675 67.6858C25.9574 67.412 26.0293 67.1564 26.0832 66.9008C26.1192 66.7 26.1731 66.5175 26.1911 66.335C26.2091 66.2254 26.2091 66.1342 26.227 66.0246C26.245 65.8421 26.263 65.6413 26.263 65.477C26.245 65.4588 26.245 65.3675 26.245 65.2945Z" fill="#2D2D2D"/>
</g>
<defs>
<clipPath id="clip0_470_436">
<rect width="54" height="69" fill="white"/>
</clipPath>
</defs>
</svg>
